<svg id="Layer_1" data-name="Layer 1" xmlns="http://www.w3.org/2000/svg" xmlns:xlink="http://www.w3.org/1999/xlink" viewBox="0 0 100 100"><defs><style>.cls-1{fill:url(#linear-gradient);}.cls-2{fill:#fff;}</style><linearGradient id="linear-gradient" x1="0.34" y1="0.34" x2="94.49" y2="94.49" gradientUnits="userSpaceOnUse"><stop offset="0" stop-color="#71d89a"/><stop offset="0.46" stop-color="#4ac17a"/><stop offset="0.99" stop-color="#22a858"/></linearGradient></defs><rect class="cls-1" width="100" height="100" rx="31.82"/><path class="cls-2" d="M28.71,32.71A7.57,7.57,0,0,1,30,29.77a6,6,0,0,1,4.91-2.48q13.13,0,26.26,0a6.2,6.2,0,0,1,6.2,6.22c0,7.58,0,6.89,0,14.47a1.71,1.71,0,0,1-1.72,1.84A1.68,1.68,0,0,1,64,48V33.81a2.86,2.86,0,0,0-2.32-3.06,3.16,3.16,0,0,0-.69-.06H35.16a2.85,2.85,0,0,0-3,3V68.54a2.85,2.85,0,0,0,3.07,3H51.28A1.72,1.72,0,0,1,53.13,73a1.7,1.7,0,0,1-1.57,2c-.18,0-.36,0-.53,0-5.22,0-10.44-.06-15.66,0a6.38,6.38,0,0,1-6.58-5.32.46.46,0,0,0-.08-.13Z"/><path class="cls-2" d="M72.9,54.38c-.7-.77-1.44-1.47-2.06-2.06a2.18,2.18,0,0,0-2.14-.57,3.52,3.52,0,0,0-1.67,1q-5.45,5.46-10.91,10.9a2.23,2.23,0,0,0-.61,1.2c-.21,1.28-.44,2.57-.68,3.86a1.51,1.51,0,0,0,.86,1.95l.06,0h.67l.1,0,.06,0,1-.17c1-.18,2.06-.36,3.08-.56a1.92,1.92,0,0,0,1-.46c3.51-3.47,7.17-7.13,11.19-11.17A2.81,2.81,0,0,0,72.9,54.38Zm-13.15,13c-.52.11-1,.2-1.57.29l-.39.07,0-.24c.11-.65.22-1.29.34-1.93a1.53,1.53,0,0,1,.13-.16L69,54.65l.16-.15.35.35c.46.45.91.9,1.32,1.33a1.6,1.6,0,0,1,0,.3l-.06.05-.09.07-1.17,1.17q-4.68,4.68-9.36,9.36A1,1,0,0,1,59.75,67.35Z"/><path class="cls-2" d="M48,48.88H37.57a2.74,2.74,0,0,1-.94-.13,1.69,1.69,0,0,1-1.09-1.81,1.73,1.73,0,0,1,1.6-1.46H58.59a1.76,1.76,0,0,1,1.85,1.14,1.71,1.71,0,0,1-1.57,2.26c-.53,0-1.07,0-1.6,0Z"/><path class="cls-2" d="M43.46,58H37.34a1.72,1.72,0,0,1-1.81-1.69,1.7,1.7,0,0,1,1.78-1.72H49.65a1.74,1.74,0,0,1,1.73,1.24,1.63,1.63,0,0,1-.7,1.85,2.24,2.24,0,0,1-1.1.3C47.54,58,45.5,58,43.46,58Z"/><path class="cls-2" d="M42.32,39.77H37.48a1.72,1.72,0,1,1,0-3.41H47.3a1.74,1.74,0,0,1,1.79,1.23,1.58,1.58,0,0,1-.67,1.86,2.4,2.4,0,0,1-1.15.3C45.62,39.79,44,39.77,42.32,39.77Z"/></svg>