<svg id="Layer_1" data-name="Layer 1" xmlns="http://www.w3.org/2000/svg" xmlns:xlink="http://www.w3.org/1999/xlink" viewBox="0 0 100 100"><defs><style>.cls-1{fill:url(#linear-gradient);}.cls-2{fill:#fff;}</style><linearGradient id="linear-gradient" x1="4.82" y1="4.82" x2="73.23" y2="73.23" gradientUnits="userSpaceOnUse"><stop offset="0" stop-color="#ffd400"/><stop offset="1" stop-color="#ff7300"/></linearGradient></defs><rect class="cls-1" width="100" height="100" rx="31.82"/><path class="cls-2" d="M22.73,59.8a2,2,0,0,1,2.19-1.29c.95.05,1.91,0,2.92,0V50.23a1.72,1.72,0,0,1,1.93-1.93H48.26V41.51c-.15,0-.3,0-.46,0H45.09a1.74,1.74,0,0,1-1.92-1.91V29.72a1.72,1.72,0,0,1,1.9-1.87h9.85a1.72,1.72,0,0,1,1.88,1.88q0,4.94,0,9.85a1.72,1.72,0,0,1-1.92,1.9h-3a.33.33,0,0,0-.12,0V48.3h.61c5.83,0,11.67,0,17.51,0,1.62,0,2.36.79,2.32,2.3-.07,2.62,0,5.25,0,8,.87,0,1.72,0,2.56,0,1.92-.13,2.62.63,2.57,2.56-.07,3,0,6.07,0,9.1a1.74,1.74,0,0,1-2,2H65.56a1.73,1.73,0,0,1-1.94-1.94V60.47a1.74,1.74,0,0,1,2-1.95h3.1V51.75h-17v6.77h3.13a1.73,1.73,0,0,1,1.94,1.94q0,4.86,0,9.74a1.73,1.73,0,0,1-1.92,2h-9.8a1.74,1.74,0,0,1-1.91-1.92V60.44a1.73,1.73,0,0,1,1.9-1.92h3.18V51.73h-17v6.79h2.57c.27,0,.54,0,.8,0a1.68,1.68,0,0,1,1.69,1.7c0,3.41,0,6.81,0,10.22a1.67,1.67,0,0,1-1.73,1.71H24.5a1.87,1.87,0,0,1-1.77-1.28Z"/></svg>