<svg id="Layer_1" data-name="Layer 1" xmlns="http://www.w3.org/2000/svg" xmlns:xlink="http://www.w3.org/1999/xlink" viewBox="0 0 100 100"><defs><style>.cls-1{fill:url(#linear-gradient);}.cls-2{fill:#fff;}</style><linearGradient id="linear-gradient" x1="0.58" y1="0.58" x2="104.15" y2="104.15" gradientUnits="userSpaceOnUse"><stop offset="0" stop-color="#a288ff"/><stop offset="0.21" stop-color="#9d82fc"/><stop offset="0.49" stop-color="#9072f4"/><stop offset="0.8" stop-color="#7b57e7"/><stop offset="0.99" stop-color="#6b43dd"/></linearGradient></defs><rect class="cls-1" width="100" height="100" rx="31.82"/><path class="cls-2" d="M49.93,31.91A16,16,0,0,1,56,27.08a15.39,15.39,0,0,1,6.27-1.31H73.87a3.06,3.06,0,0,1,3.4,3.37V64.78c0,2.22-1.21,3.4-3.46,3.41H56.65c-2.34,0-3.37.92-3.63,3.25a3,3,0,0,1-6,0c-.24-2.25-1.3-3.21-3.56-3.21H26.35c-2.49,0-3.62-1.14-3.62-3.65V29.41c0-2.51,1.13-3.64,3.63-3.64,3.6,0,7.2,0,10.8,0a15.25,15.25,0,0,1,12.43,5.59A4.66,4.66,0,0,1,49.93,31.91Zm-3,30.56a.7.7,0,0,0,.06-.19c0-7.17.08-14.35,0-21.52-.07-4.36-3.12-8.21-7.19-8.64A101.27,101.27,0,0,0,28.85,32v30.1c1.13,0,2.21,0,3.28,0C37,62.27,42,61.8,46.9,62.47ZM71.17,31.86c-3.23,0-6.35-.08-9.48,0A9.12,9.12,0,0,0,53,41.33c0,6.77,0,13.53,0,20.3,0,.3,0,.59,0,.81,6-.68,12.06-.09,18.1-.37Z"/></svg>