<svg id="Layer_1" data-name="Layer 1" xmlns="http://www.w3.org/2000/svg" xmlns:xlink="http://www.w3.org/1999/xlink" viewBox="0 0 100 100"><defs><style>.cls-1{fill:url(#linear-gradient);}.cls-2{fill:#fff;}</style><linearGradient id="linear-gradient" x1="0.58" y1="0.58" x2="104.15" y2="104.15" gradientUnits="userSpaceOnUse"><stop offset="0" stop-color="#83eab8"/><stop offset="0.99" stop-color="#0ce286"/></linearGradient></defs><rect class="cls-1" width="100" height="100" rx="31.82"/><path class="cls-2" d="M64.82,46.39A1.81,1.81,0,0,0,65.07,50a1.14,1.14,0,0,0,.26,0,9,9,0,0,0,.22-17.84,1.8,1.8,0,0,0-1.35.3,1.86,1.86,0,0,0-.75,1.19A1.83,1.83,0,0,0,63.77,35a1.76,1.76,0,0,0,1.18.72,5.4,5.4,0,0,1-.13,10.68Z"/><path class="cls-2" d="M70,54.81a1.83,1.83,0,0,0-2,1.53,1.76,1.76,0,0,0,.33,1.35,1.88,1.88,0,0,0,1.19.72c2.8.41,4.22,1.2,4.22,2.34,0,.36,0,1.11-1.75,1.78a1.81,1.81,0,0,0-1.05,2.34,1.81,1.81,0,0,0,2.34,1c3.37-1.29,4.08-3.52,4.08-5.17C77.27,57.54,74.81,55.54,70,54.81Z"/><path class="cls-2" d="M50,55.84c-7.2,0-16.78.82-16.78,7.92,0,7.95,12.63,7.95,16.78,7.95,7.2,0,16.78-.82,16.78-7.91C66.78,55.84,54.15,55.84,50,55.84Zm13.15,8c0,2.8-4.54,4.28-13.15,4.28-6,0-13.16-.75-13.16-4.32,0-2.81,4.55-4.3,13.16-4.3C56,59.46,63.15,60.21,63.15,63.8Z"/><path class="cls-2" d="M49.93,52.49H50a11.38,11.38,0,1,0-.07,0ZM42.22,41.08A7.78,7.78,0,1,1,50,48.86h-.06a7.73,7.73,0,0,1-7.72-7.78Z"/><path class="cls-2" d="M34.67,50a1.1,1.1,0,0,0,.26,0,1.81,1.81,0,0,0,.25-3.61,5.4,5.4,0,0,1-.13-10.68A1.76,1.76,0,0,0,36.23,35a1.81,1.81,0,0,0-.43-2.55,1.73,1.73,0,0,0-1.33-.3A9,9,0,0,0,34.67,50Z"/><path class="cls-2" d="M30,54.81c-4.84.73-7.3,2.73-7.3,5.94,0,1.65.71,3.88,4.08,5.17a1.81,1.81,0,0,0,2.3-2.44,1.78,1.78,0,0,0-1-.95c-1.75-.67-1.75-1.42-1.75-1.78,0-1.14,1.42-1.93,4.22-2.34a1.88,1.88,0,0,0,1.19-.72,1.76,1.76,0,0,0,.33-1.35A1.87,1.87,0,0,0,30,54.81Z"/></svg>