<svg id="Layer_1" data-name="Layer 1" xmlns="http://www.w3.org/2000/svg" xmlns:xlink="http://www.w3.org/1999/xlink" viewBox="0 0 100 100"><defs><style>.cls-1{fill:url(#linear-gradient);}.cls-2,.cls-3{fill:#fff;}.cls-2{fill-rule:evenodd;}</style><linearGradient id="linear-gradient" x1="15.43" y1="15.43" x2="143.97" y2="143.97" gradientUnits="userSpaceOnUse"><stop offset="0" stop-color="#ffa6fb"/><stop offset="0.17" stop-color="#d37df1"/><stop offset="0.35" stop-color="#aa57e8"/><stop offset="0.53" stop-color="#8a39e1"/><stop offset="0.7" stop-color="#7324dc"/><stop offset="0.86" stop-color="#6517d9"/><stop offset="1" stop-color="#6013d8"/></linearGradient></defs><rect class="cls-1" width="100" height="100" rx="31.82"/><path class="cls-2" d="M34.27,22.88A11.54,11.54,0,0,0,22.73,34.42v28.1A11.53,11.53,0,0,0,34.27,74.06H47.94a2.17,2.17,0,1,0,0-4.34H34.27a7.2,7.2,0,0,1-7.19-7.2V34.42a7.19,7.19,0,0,1,7.19-7.19H61.6a7.19,7.19,0,0,1,7.2,7.19v14a2.17,2.17,0,1,0,4.34,0v-14A11.54,11.54,0,0,0,61.6,22.88Z"/><path class="cls-2" d="M35.53,46.3a2.17,2.17,0,0,0,0,4.34h7.68a2.17,2.17,0,1,0,0-4.34Z"/><path class="cls-2" d="M33.36,38.24a2.17,2.17,0,0,1,2.17-2.17H50.88a2.17,2.17,0,0,1,0,4.34H35.53A2.17,2.17,0,0,1,33.36,38.24Z"/><path class="cls-3" d="M75.18,57.79h0a12.41,12.41,0,1,0,2.1,6.9A12.36,12.36,0,0,0,75.17,57.79Zm-.84,6.9a9.5,9.5,0,1,1-14.78-7.9,9.48,9.48,0,0,1,12,1.19A9.41,9.41,0,0,1,74.34,64.69Z"/><path class="cls-3" d="M69.67,66.93l-3.75-2.25v-5a1.45,1.45,0,0,0-.47-1,1.48,1.48,0,0,0-2,0,1.44,1.44,0,0,0-.46,1v5.75a1.46,1.46,0,0,0,.19.72,1.39,1.39,0,0,0,.52.53l4.46,2.67a1.49,1.49,0,0,0,.73.2h0a1.39,1.39,0,0,0,.86-.29,1.5,1.5,0,0,0,.53-.77,1.52,1.52,0,0,0,0-.94A1.43,1.43,0,0,0,69.67,66.93Zm0,.94Zm-.34-.39Z"/></svg>