<svg id="Layer_1" data-name="Layer 1" xmlns="http://www.w3.org/2000/svg" xmlns:xlink="http://www.w3.org/1999/xlink" viewBox="0 0 100 100"><defs><style>.cls-1{fill:url(#linear-gradient);}.cls-2{fill:#fff;}</style><linearGradient id="linear-gradient" x1="-5.12" y1="-5.12" x2="117.69" y2="117.69" gradientUnits="userSpaceOnUse"><stop offset="0" stop-color="#89e6ef"/><stop offset="0.99" stop-color="#10c0dd"/></linearGradient></defs><rect class="cls-1" width="100" height="100" rx="31.82"/><path class="cls-2" d="M49.53,38.72a2.13,2.13,0,0,0-2.88,0A2.17,2.17,0,0,0,46,40.18V51.66a2.1,2.1,0,0,0,.27,1,2.16,2.16,0,0,0,.76.77l7,4.22a2.14,2.14,0,0,0,2.35-.13,2.15,2.15,0,0,0,.75-1.12,2.09,2.09,0,0,0-.94-2.36l-6-3.61V40.12A2.1,2.1,0,0,0,49.53,38.72Z"/><path class="cls-2" d="M58.78,67.56l-.23-.35-.68.36c-.43.23-.93.5-1.43.71a19.93,19.93,0,1,1,12-20.44l0,.4h.41l.22,0a12,12,0,0,1,3,.43l.62.15-.06-.64A24.13,24.13,0,1,0,60.85,70.67l.55-.32-.48-.41A13.6,13.6,0,0,1,58.78,67.56Z"/><path class="cls-2" d="M69.11,49.88A10.77,10.77,0,1,0,79.88,60.65,10.77,10.77,0,0,0,69.11,49.88ZM76.9,60.65a7.79,7.79,0,1,1-7.79-7.79A7.8,7.8,0,0,1,76.9,60.65Z"/><path class="cls-2" d="M72.84,59.15H70.61V56.92a1.5,1.5,0,0,0-3,0v2.23H65.38a1.5,1.5,0,0,0,0,3h2.24v2.24a1.5,1.5,0,0,0,3,0V62.14h2.23a1.5,1.5,0,1,0,0-3Z"/></svg>