<svg id="Layer_1" data-name="Layer 1" xmlns="http://www.w3.org/2000/svg" xmlns:xlink="http://www.w3.org/1999/xlink" viewBox="0 0 100 100"><defs><style>.cls-1{fill:url(#linear-gradient);}.cls-2{fill:#fff;}</style><linearGradient id="linear-gradient" x1="4.02" y1="4.02" x2="89.12" y2="89.12" gradientUnits="userSpaceOnUse"><stop offset="0" stop-color="#47d6cb"/><stop offset="0.31" stop-color="#42d0c6"/><stop offset="0.71" stop-color="#33c0b8"/><stop offset="1" stop-color="#24b0ab"/></linearGradient></defs><rect class="cls-1" width="100" height="100" rx="31.82"/><path class="cls-2" d="M77.38,58.87a4.13,4.13,0,0,0-.08-.78,4.58,4.58,0,0,0-4.51-3.74c-.87,0-1.74,0-2.62,0H69v0c0-.17,0-.32,0-.47a3.78,3.78,0,0,0-3.58-3.79c-1.44-.07-3-.07-4.54,0a3.75,3.75,0,0,0-3.59,3.43,4.71,4.71,0,0,0,0,.75v.11H53.36A4.58,4.58,0,0,0,49,57.83l-.09.38,0,.2V72.75l0,.17a4.64,4.64,0,0,0,4.68,4h.06c1.51,0,3,0,4.51,0,4.87,0,9.72,0,14.57,0a4.74,4.74,0,0,0,3.41-1.41,4.43,4.43,0,0,0,1.29-3.22C77.39,69.58,77.39,61.46,77.38,58.87ZM59.87,54.33a.41.41,0,0,1,0-.11,3.64,3.64,0,0,1,0-.67,1.15,1.15,0,0,1,1-.86l.32,0H65A1.22,1.22,0,0,1,66.33,54v.33Zm14.69,4.83a6.58,6.58,0,0,1-4.76,5.42h0c-.13-.63-.42-1.33-1.29-1.33h-.08c-.93.06-1.18.76-1.26,1.56H59v-.2a1.33,1.33,0,1,0-2.65,0c-.16,0-.32-.09-.46-.15a6.59,6.59,0,0,1-4.35-5.74c-.1-.73.74-1.53,1.46-1.65a2.89,2.89,0,0,1,.5,0H72.65a2,2,0,0,1,1.86,1.07A1.47,1.47,0,0,1,74.56,59.16ZM51.47,66.92V64.57A9.23,9.23,0,0,0,56,67.21a2.6,2.6,0,0,1,.37.11,1.71,1.71,0,0,1,0,.4A1.33,1.33,0,0,0,57.68,69h0A1.33,1.33,0,0,0,59,67.75v-.26h8.12a2.81,2.81,0,0,0,0,.29A1.33,1.33,0,0,0,68.49,69h0a1.33,1.33,0,0,0,1.29-1.33c0-.13,0-.25,0-.37v0h0A9.19,9.19,0,0,0,74.32,65l.42-.38v.47c0,1.86,0,6.09,0,7.1v0a2,2,0,0,1-2.11,2h-19a2,2,0,0,1-2.11-2.11Z"/><path class="cls-2" d="M59.33,23.32l1.05.3a6.8,6.8,0,0,1,4.87,6.51c0,8.34,0,6.33,0,14.66a1.87,1.87,0,1,1-3.74,0V30.56A3.38,3.38,0,0,0,60.65,28a3,3,0,0,0-2.23-1H29.72a3.09,3.09,0,0,0-3.11,3.29q0,18.49,0,37c0,.45,0,.9,0,1.35a3.11,3.11,0,0,0,3.23,3.24c5.47,0,5.31,0,10.79,0h1.58a1.88,1.88,0,0,1,1.85,1.88,1.85,1.85,0,0,1-1.87,1.85c-6.15,0-6.67,0-12.83,0a6.79,6.79,0,0,1-6.49-6.58c0-1.5,0-3,0-4.5,0-11.32.05-22.63,0-33.95a7,7,0,0,1,5.84-7.22c.05,0,.1,0,.15-.08Z"/><path class="cls-2" d="M44.06,47c-3.83,0-7.67,0-11.5,0a3,3,0,0,1-1.33-.31,1.75,1.75,0,0,1-.83-2,1.83,1.83,0,0,1,1.68-1.39H55.67a1.94,1.94,0,0,1,1.86,1,1.84,1.84,0,0,1-1.15,2.69,4.13,4.13,0,0,1-.93.08Z"/><path class="cls-2" d="M37.28,57H32a1.88,1.88,0,0,1,0-3.74H42.74a1.64,1.64,0,0,1,1.52,1.61,1.88,1.88,0,0,1-1.16,2.09,2.59,2.59,0,0,1-.56,0Z"/><path class="cls-2" d="M37.81,37c-1.89,0-3.78,0-5.67,0a1.85,1.85,0,0,1-.83-3.47,2,2,0,0,1,.84-.24q5.66,0,11.33,0a1.8,1.8,0,0,1,1.75,1.38,1.72,1.72,0,0,1-.73,2,2.65,2.65,0,0,1-1.26.35c-1.81,0-3.62,0-5.43,0Z"/></svg>