<svg id="Layer_1" data-name="Layer 1" xmlns="http://www.w3.org/2000/svg" viewBox="0 0 100 100"><defs><style>.cls-1{fill:#73818f;}</style></defs><path class="cls-1" d="M92.46,40H7.58a2.38,2.38,0,1,1,0-4.76H92.46a2.38,2.38,0,1,1,0,4.76Z"/><path class="cls-1" d="M71.2,58.62a2.41,2.41,0,0,1-2.41-2.38,2.36,2.36,0,0,1,2.36-2.38h0a2.38,2.38,0,0,1,0,4.76Z"/><path class="cls-1" d="M50.07,58.62a2.4,2.4,0,0,1-2.4-2.38A2.35,2.35,0,0,1,50,53.86h0a2.38,2.38,0,1,1,0,4.76Z"/><path class="cls-1" d="M28.89,58.62a2.4,2.4,0,0,1-2.4-2.38,2.36,2.36,0,0,1,2.36-2.38h0a2.38,2.38,0,0,1,0,4.76Z"/><path class="cls-1" d="M71.2,77.13a2.41,2.41,0,0,1-2.41-2.39,2.36,2.36,0,0,1,2.36-2.38h0a2.39,2.39,0,0,1,0,4.77Z"/><path class="cls-1" d="M50.07,77.13a2.4,2.4,0,0,1-2.4-2.39A2.36,2.36,0,0,1,50,72.36h0a2.39,2.39,0,0,1,0,4.77Z"/><path class="cls-1" d="M28.89,77.13a2.4,2.4,0,0,1-2.4-2.39,2.36,2.36,0,0,1,2.36-2.38h0a2.39,2.39,0,0,1,0,4.77Z"/><path class="cls-1" d="M69.26,20.43a2.37,2.37,0,0,1-2.38-2.38V2.38a2.38,2.38,0,1,1,4.76,0V18.05A2.38,2.38,0,0,1,69.26,20.43Z"/><path class="cls-1" d="M30.78,20.43a2.38,2.38,0,0,1-2.38-2.38V2.38a2.39,2.39,0,0,1,4.77,0V18.05A2.38,2.38,0,0,1,30.78,20.43Z"/><path class="cls-1" d="M70.14,100H29.86c-15.71,0-25.1-9.31-25.1-24.9V32c0-15.33,9.39-24.49,25.1-24.49H70.18c7.81,0,14.25,2.32,18.62,6.7s6.46,10.4,6.44,17.8V75.47C95.24,90.83,85.85,100,70.14,100ZM29.86,12.28c-13.11,0-20.34,7-20.34,19.73V75.1c0,12.8,7.42,20.14,20.34,20.14H70.14c13.11,0,20.34-7,20.34-19.77V32c0-6.2-1.68-11-5-14.43s-8.73-5.3-15.25-5.3Z"/></svg>