<svg id="Layer_1" data-name="Layer 1" xmlns="http://www.w3.org/2000/svg" viewBox="0 0 100 100"><defs><style>.cls-1{fill:#73818f;}</style></defs><path class="cls-1" d="M0,53.32V46.49a6.14,6.14,0,0,0,.19-.85A47.83,47.83,0,0,1,3.3,32,50,50,0,0,1,99.52,56.88a48.45,48.45,0,0,1-7.8,20.68,49.11,49.11,0,0,1-33,21.64c-1.78.33-3.59.52-5.38.78H46.86c-.29-.07-.57-.14-.85-.19-2.44-.37-4.92-.58-7.31-1.14A49.09,49.09,0,0,1,10.35,80.41a48.38,48.38,0,0,1-9.78-23C.37,56,.19,54.67,0,53.32ZM13.82,20.53A46.47,46.47,0,0,0,3.3,48.34H23.22a88,88,0,0,1,3.32-22.76Zm59.51,5c0,.06,0,.29.1.5A82.58,82.58,0,0,1,76.54,47.5c0,.74.27.92,1,.92,6,0,12,0,18,0,.28,0,.57,0,1-.06A46.42,46.42,0,0,0,86,20.52ZM96.54,51.81h-20a86.56,86.56,0,0,1-3.26,22.73L86,79.61A46.46,46.46,0,0,0,96.54,51.81Zm-93.25,0A46.51,46.51,0,0,0,13.82,79.6l12.72-5a88.24,88.24,0,0,1-3.32-22.76ZM69.94,26.27c-3.11.5-6.11,1.08-9.12,1.45s-6.08.5-9.14.74V48.32H73.21A83.48,83.48,0,0,0,69.94,26.27ZM73.2,51.82H51.59v1.11c0,5.89,0,11.77,0,17.66,0,1,.3,1.21,1.24,1.29q6.16.5,12.31,1.17c1.6.18,3.17.57,4.8.88A82.91,82.91,0,0,0,73.2,51.82Zm-25-23.15-18.36-2.2a81.49,81.49,0,0,0-3.18,21.85H48.2Zm0,43.13v-20H26.65A82.17,82.17,0,0,0,29.94,74,88.21,88.21,0,0,1,48.16,71.8Zm3.48,24.75a13.27,13.27,0,0,0,6.53-2.86c4.46-3.44,7.14-8.16,9.39-13.18.47-1.07.86-2.19,1.31-3.31a83.9,83.9,0,0,0-17.23-2Zm0-93V25a83,83,0,0,0,17.21-2c-.45-1.15-.84-2.25-1.31-3.3-2-4.49-4.36-8.72-8-12.08A15,15,0,0,0,51.65,3.55ZM30.85,22.9A83.61,83.61,0,0,0,48.17,25V3.56a14,14,0,0,0-6.48,2.86,27.55,27.55,0,0,0-7.56,9.42C32.94,18.1,32,20.46,30.85,22.9ZM31,77.2a43.92,43.92,0,0,0,6.62,12.47,20,20,0,0,0,6.45,5.55,10.21,10.21,0,0,0,4.11,1.3V75.16A85.44,85.44,0,0,0,31,77.2ZM83.72,17.94C78.5,12.07,66.84,5.29,61.78,5.09A42,42,0,0,1,72.29,22.34ZM16.3,17.76a53.9,53.9,0,0,0,11.34,4.38A42.15,42.15,0,0,1,38,5.11C32.42,5.63,21.38,12.09,16.3,17.76ZM38.12,95.11a41.85,41.85,0,0,1-10.47-17c-2.27.3-10.27,3.33-11.24,4.39C21.09,87.9,31.48,94,38.12,95.11ZM72.27,77.77A43.54,43.54,0,0,1,61.93,95.05,46,46,0,0,0,83.76,82.2Z"/></svg>